<?xml version="1.0" standalone="no"?><!DOCTYPE svg PUBLIC "-//W3C//DTD SVG 1.1//EN" "http://www.w3.org/Graphics/SVG/1.1/DTD/svg11.dtd"><svg t="1687509440259" class="icon" viewBox="0 0 1024 1024" version="1.1" xmlns="http://www.w3.org/2000/svg" p-id="3202" xmlns:xlink="http://www.w3.org/1999/xlink" width="200" height="200"><path d="M511.744 128a38.4 38.4 0 0 0-38.4 38.4v345.792a38.4 38.4 0 0 0 76.8 0V166.4a38.4 38.4 0 0 0-38.4-38.4z m271.872 170.304c16.64-13.056 41.024-10.24 52.48 7.616A384.512 384.512 0 0 1 511.744 896a384.512 384.512 0 0 1-324.48-589.952c11.456-17.92 35.776-20.672 52.48-7.616 16.64 13.12 19.328 37.12 8.32 55.296A307.584 307.584 0 0 0 511.744 819.2a307.648 307.648 0 0 0 263.552-465.536c-10.88-18.112-8.32-42.176 8.384-55.296z" fill="#5A5A5A" p-id="3203"></path></svg>